Coordinates
version=1
nRows=21
nColumns=33
inDegrees=yes

Units are S.I. units (second, meters, Newtons, ...)
Angles are in degrees.

endheader
time	ground_thorax_rot_x	ground_thorax_rot_y	ground_thorax_rot_z	ground_thorax_tx	ground_thorax_ty	ground_thorax_tz	clav_prot_r	clav_elev_r	scapula_abduction_r	scapula_elevation_r	scapula_upward_rot_r	scapula_winging_r	shoulder_elv_r	plane_of_elev_r	axial_rot_r	elbow_flexion_r	pro_sup_r	wrist_flex_r	wrist_dev_r	clav_prot_l	clav_elev_l	scapula_abduction_l	scapula_elevation_l	scapula_upward_rot_l	scapula_winging_l	shoulder_elv_l	plane_of_elev_l	axial_rot_l	elbow_flexion_l	pro_sup_l	wrist_flex_l	wrist_dev_l	
0.5800	2.865834	-1.670423	2.145612	-0.165602	0.990015	0.003536	-6.288449	3.036809	-5.840337	6.832399	7.971867	-2.441907	47.599230	-40.953740	50.453025	76.314911	-12.701875	27.692148	-10.768544	-9.658130	0.929206	13.528854	-6.564704	0.511189	-1.268328	38.826934	-45.411742	-15.887523	78.159924	13.896230	-2.937115	-22.334330	
0.5900	2.892934	-1.720206	2.169689	-0.165450	0.989910	0.003839	-6.282536	2.903356	-5.897902	6.792186	7.762063	-2.370228	47.547230	-40.862954	50.279172	76.101351	-12.308015	28.020708	-10.994651	-9.655126	0.714993	13.509964	-6.420194	0.374651	-1.323232	38.849021	-45.480380	-15.799534	77.331247	14.131962	-3.093799	-22.598905	
0.6000	2.928704	-1.764952	2.180143	-0.165283	0.989771	0.004132	-6.270079	2.772349	-5.961444	6.766159	7.521758	-2.290523	47.521728	-40.748250	50.065485	75.901266	-11.790476	28.465405	-11.306072	-9.644928	0.491269	13.482672	-6.273342	0.222530	-1.382321	38.872828	-45.521094	-15.702446	76.505646	14.423169	-3.318848	-22.990584	
0.6100	2.976165	-1.789585	2.179664	-0.165120	0.989677	0.004385	-6.251393	2.629163	-6.029980	6.743933	7.243336	-2.199923	47.532139	-40.614484	49.802211	75.692489	-11.154891	29.024317	-11.723264	-9.627776	0.236402	13.443163	-6.107405	0.046352	-1.449510	38.899030	-45.496553	-15.598432	75.651034	14.763138	-3.620397	-23.490180	
0.6200	3.023283	-1.802048	2.167055	-0.164952	0.989576	0.004608	-6.234876	2.471590	-6.099751	6.710691	6.959425	-2.106464	47.564105	-40.484383	49.519921	75.518923	-10.519083	29.596634	-12.203085	-9.603849	-0.022122	13.398219	-5.944900	-0.146351	-1.520940	38.934906	-45.405053	-15.508729	74.819676	15.073920	-3.949793	-23.973295	
0.6300	3.064627	-1.803037	2.145320	-0.164779	0.989462	0.004798	-6.215010	2.295432	-6.172135	6.672116	6.646034	-2.003815	47.630986	-40.351554	49.212906	75.384927	-9.849232	30.217823	-12.806691	-9.567941	-0.278541	13.349096	-5.799191	-0.375109	-1.600449	39.002031	-45.236371	-15.443041	74.035374	15.337772	-4.348763	-24.422251	
0.6400	3.089444	-1.801561	2.123813	-0.164598	0.989307	0.004959	-6.199017	2.108645	-6.241099	6.619934	6.342842	-1.903172	47.708210	-40.236869	48.921238	75.310506	-9.267510	30.772279	-13.443978	-9.526179	-0.510146	13.304942	-5.682530	-0.618356	-1.681522	39.097617	-45.013756	-15.416879	73.356035	15.497247	-4.756484	-24.727829	
0.6500	3.099321	-1.800562	2.102294	-0.164404	0.989132	0.005096	-6.188767	1.918017	-6.311336	6.559181	6.052743	-1.804748	47.788825	-40.138183	48.637604	75.289097	-8.776547	31.249125	-14.083939	-9.485386	-0.725642	13.271682	-5.583464	-0.868249	-1.764274	39.225230	-44.755227	-15.429019	72.787632	15.561044	-5.179710	-24.898222	
0.6600	3.099310	-1.804360	2.082953	-0.164190	0.988942	0.005217	-6.190905	1.739445	-6.383115	6.491436	5.808525	-1.717720	47.853597	-40.062690	48.370282	75.316546	-8.425112	31.590428	-14.623902	-9.456259	-0.926771	13.255295	-5.488712	-1.096620	-1.843372	39.364473	-44.491217	-15.473394	72.347193	15.548694	-5.578762	-24.951461	
0.6700	3.100281	-1.805879	2.049288	-0.163944	0.988772	0.005332	-6.202316	1.572389	-6.470571	6.430240	5.574259	-1.630734	47.918530	-39.990075	48.060265	75.382799	-8.109402	31.875568	-15.104695	-9.441960	-1.143584	13.260483	-5.378465	-1.323966	-1.928210	39.537985	-44.214759	-15.544762	72.006901	15.515843	-6.047661	-24.984994	
0.6800	3.102934	-1.810764	2.009503	-0.163673	0.988605	0.005441	-6.225592	1.429504	-6.567820	6.376362	5.377530	-1.552904	47.969649	-39.925144	47.725342	75.490765	-7.871996	32.047049	-15.441972	-9.447354	-1.365245	13.291413	-5.255486	-1.532448	-2.013785	39.733016	-43.947325	-15.644280	71.778534	15.474601	-6.557016	-24.999998	
0.6900	3.107190	-1.812357	1.960453	-0.163379	0.988484	0.005559	-6.252382	1.295033	-6.684746	6.338550	5.159825	-1.467095	48.031935	-39.854486	47.302813	75.645085	-7.645048	32.120161	-15.687914	-9.469915	-1.615724	13.366064	-5.125681	-1.792179	-2.121808	40.035013	-43.660116	-15.815670	71.626815	15.422898	-7.286507	-24.999997	
0.7000	3.113395	-1.818328	1.908708	-0.163072	0.988374	0.005679	-6.280464	1.176934	-6.813409	6.319123	4.933827	-1.378986	48.108158	-39.769331	46.821132	75.846267	-7.413557	32.101899	-15.835080	-9.508520	-1.869739	13.484231	-5.006723	-2.088449	-2.245177	40.416019	-43.356842	-16.049483	71.549678	15.374922	-8.198631	-24.999995	
0.7100	3.118590	-1.825560	1.853791	-0.162758	0.988292	0.005797	-6.305689	1.063252	-6.955011	6.316563	4.675480	-1.281536	48.209923	-39.659180	46.273021	76.083558	-7.127519	32.044294	-15.955540	-9.555889	-2.123439	13.639492	-4.907281	-2.433361	-2.384946	40.881407	-43.025611	-16.341485	71.514053	15.331434	-9.303579	-24.999991	
0.7200	3.120103	-1.841899	1.798319	-0.162435	0.988205	0.005901	-6.339948	0.966831	-7.108992	6.322389	4.435716	-1.188220	48.308762	-39.519139	45.698483	76.347519	-6.825872	31.887843	-15.944005	-9.621096	-2.342699	13.827420	-4.829577	-2.754059	-2.518776	41.353905	-42.685683	-16.671857	71.507919	15.323892	-10.449141	-24.999983	
0.7300	3.118465	-1.864690	1.743077	-0.162100	0.988153	0.005998	-6.385656	0.876484	-7.274919	6.325364	4.216699	-1.098016	48.397460	-39.356266	45.095799	76.623181	-6.525101	31.649756	-15.822792	-9.697393	-2.535620	14.031254	-4.764503	-3.046164	-2.644296	41.821054	-42.348897	-17.022577	71.495882	15.348045	-11.582141	-24.999970	
0.7400	3.116031	-1.893064	1.672000	-0.161744	0.988107	0.006083	-6.453983	0.794061	-7.448845	6.307877	4.066716	-1.022965	48.452459	-39.179357	44.498553	76.911803	-6.278686	31.335512	-15.569934	-9.783866	-2.687412	14.226906	-4.700431	-3.246323	-2.741903	42.200501	-42.028736	-17.338469	71.475670	15.406484	-12.516926	-24.999946	
0.7500	3.113767	-1.923991	1.593580	-0.161380	0.988092	0.006154	-6.537511	0.708979	-7.615260	6.261383	3.982915	-0.963945	48.474794	-39.002747	43.925683	77.194437	-6.107692	31.012277	-15.271585	-9.859785	-2.805226	14.379332	-4.635705	-3.365273	-2.810100	42.481640	-41.747656	-17.586894	71.446598	15.473016	-13.187552	-24.999904	
0.7600	3.108336	-1.946306	1.491000	-0.160998	0.988094	0.006217	-6.635590	0.614870	-7.782707	6.189192	3.942287	-0.913488	48.458994	-38.815160	43.327624	77.475566	-6.003548	30.650237	-14.909137	-9.921694	-2.895571	14.485873	-4.569675	-3.416189	-2.852472	42.692675	-41.485937	-17.787280	71.416947	15.545315	-13.624282	-24.999828	
0.7700	3.098162	-1.965185	1.394663	-0.160625	0.988135	0.006272	-6.725675	0.509569	-7.929580	6.105044	3.905981	-0.866332	48.425100	-38.615041	42.717483	77.738600	-5.940355	30.293087	-14.561625	-9.951190	-2.965985	14.536255	-4.519859	-3.458497	-2.881662	42.884395	-41.258809	-17.954871	71.397782	15.595791	-13.910094	-24.999692	
0.7800	3.079816	-1.971735	1.291073	-0.160250	0.988176	0.006329	-6.802312	0.401608	-8.064498	6.029363	3.842936	-0.815010	48.369533	-38.379487	42.032615	78.003802	-5.900258	29.841195	-14.133269	-9.952302	-3.014099	14.542599	-4.492718	-3.502878	-2.900963	43.088657	-41.032178	-18.116251	71.399895	15.623756	-14.079488	-24.999448	
